<?xml version="1.0" encoding="utf-8"?>
<!-- Generator: Adobe Illustrator 19.0.0, SVG Export Plug-In . SVG Version: 6.00 Build 0)  -->
<!DOCTYPE svg PUBLIC "-//W3C//DTD SVG 1.1//EN" "http://www.w3.org/Graphics/SVG/1.1/DTD/svg11.dtd">
<svg version="1.1" id="Layer_1" xmlns="http://www.w3.org/2000/svg" xmlns:xlink="http://www.w3.org/1999/xlink" x="0px" y="0px"
	 viewBox="0 0 960 150.3" style="enable-background:new 0 0 960 150.3;" xml:space="preserve">
<style type="text/css">
	.st0{opacity:0.9;fill:#FFFFFF;}
	.st1{fill:#00B0B2;stroke:#FFFFFF;stroke-width:5;stroke-miterlimit:10;}
	.st2{fill:#FFFFFF;}
	.st3{fill:#00B0B2;stroke:#00B0B2;stroke-width:0.9092;stroke-miterlimit:10;}
</style>
<rect id="XMLID_384_" class="st0" width="960" height="150.3"/>
<g id="XMLID_71_">
	<g id="XMLID_150_">
		<polygon id="XMLID_152_" class="st1" points="169.6,110.5 143.3,110.5 100.2,143.4 112.4,110.5 27.1,110.5 27.1,10.9 169.6,10.9 
					"/>
		<rect id="XMLID_151_" x="138.7" y="22.9" class="st2" width="19.2" height="19.2"/>
	</g>
	<g id="XMLID_111_">
		<g id="XMLID_144_">
			<path id="XMLID_204_" class="st2" d="M46.1,68.4c-1.7,0-3.4-0.7-4.6-1.9c-1.2-1.2-1.9-2.9-1.9-4.6c0-1.7,0.7-3.4,1.9-4.6
				c1.2-1.2,2.9-1.9,4.6-1.9c1.7,0,3.4,0.7,4.6,1.9c1.2,1.3,1.9,2.9,1.9,4.6c0,1.7-0.7,3.4-1.9,4.6C49.4,67.7,47.8,68.4,46.1,68.4z
				 M46.1,56c-1.6,0-3,0.6-4.1,1.7c-1.1,1.1-1.7,2.6-1.7,4.1c0,1.5,0.6,3,1.7,4.1c1.1,1.1,2.6,1.7,4.1,1.7c1.6,0,3-0.6,4.1-1.7
				c1.1-1.1,1.7-2.6,1.7-4.1s-0.6-3-1.7-4.1C49.1,56.6,47.6,56,46.1,56z"/>
			<path id="XMLID_199_" class="st2" d="M46.1,55.5c1.7,0,3.3,0.7,4.5,1.9c1.1,1.1,1.9,2.7,1.9,4.5s-0.7,3.3-1.9,4.5
				c-1.1,1.2-2.7,1.9-4.5,1.9c-1.7,0-3.3-0.7-4.5-1.9c-1.1-1.1-1.9-2.7-1.9-4.5s0.7-3.3,1.9-4.5C42.7,56.2,44.3,55.5,46.1,55.5
				 M46.1,68c1.7,0,3.2-0.7,4.3-1.8c1.1-1.1,1.7-2.6,1.7-4.3c0-1.7-0.7-3.2-1.7-4.3c-1.1-1.1-2.6-1.8-4.3-1.8
				c-1.7,0-3.2,0.7-4.3,1.8c-1.1,1.1-1.8,2.6-1.8,4.3c0,1.7,0.7,3.2,1.8,4.3C42.9,67.3,44.4,68,46.1,68 M46.1,55.1
				c-1.8,0-3.5,0.7-4.7,2c-1.3,1.3-2,3-2,4.7c0,1.8,0.7,3.5,2,4.8c1.2,1.3,2.9,2,4.7,2c1.8,0,3.5-0.7,4.7-2c1.3-1.3,2-3,2-4.8
				s-0.7-3.5-2-4.8C49.5,55.8,47.9,55.1,46.1,55.1L46.1,55.1z M46.1,67.6c-1.5,0-2.9-0.6-4-1.7c-1.1-1.1-1.7-2.5-1.7-4
				s0.6-2.9,1.7-4c1.1-1.1,2.5-1.7,4-1.7c1.5,0,2.9,0.6,4,1.7c1.1,1.1,1.6,2.5,1.6,4s-0.6,2.9-1.6,4C49,67,47.6,67.6,46.1,67.6
				L46.1,67.6z"/>
		</g>
		<g id="XMLID_142_">
			<path id="XMLID_188_" class="st2" d="M61.5,68.4c-2.2,0-4.5-1.3-4.5-3.7v-9.2h0.7v9.2c0,2,2,3,3.9,3s3.9-1.1,3.9-3v-9.2H66v9.2
				C66,67.1,63.7,68.4,61.5,68.4z"/>
			<path id="XMLID_185_" class="st2" d="M65.9,55.7v9c0,2.3-2.3,3.5-4.3,3.5c-2,0-4.3-1.2-4.3-3.5v-9h0.3v9c0,2.1,2.2,3.2,4,3.2
				s4-1.1,4-3.2v-9H65.9 M66.2,55.3h-0.4h-0.3h-0.4v0.4v9c0,1.8-1.9,2.8-3.7,2.8s-3.7-1-3.7-2.8v-9v-0.4h-0.4h-0.3h-0.4v0.4v9
				c0,2.5,2.4,3.9,4.7,3.9s4.7-1.4,4.7-3.9v-9V55.3L66.2,55.3z"/>
		</g>
		<g id="XMLID_138_">
			<path id="XMLID_183_" class="st2" d="M78.6,68.3L72.8,63v-0.5h2.6c1,0,1.9-0.3,2.4-1c0.5-0.6,0.8-1.3,0.8-2.2
				c0-1.5-1-3.2-3.3-3.2h-3.8v12.1h-0.6V55.5h4.5c2.7,0,3.9,2,3.9,3.8c0,1-0.3,1.9-1,2.6c-0.7,0.8-1.7,1.2-2.9,1.2h-1.5l5.7,5.1
				H78.6z"/>
			<path id="XMLID_171_" class="st2" d="M75.4,55.7c4.9,0,4.9,7.2,0,7.2h-2l5.7,5.1h-0.4L73,62.9v-0.3h2.4c4.6,0,4.6-6.7,0-6.7h-4
				v12.1h-0.3V55.8v-0.1h0.1H75.4 M75.4,55.3h-4.1h-0.1h-0.4v0.4v0.1v12.2v0.4h0.4h0.3h0.4v-0.4V56.4h3.6c1,0,1.8,0.3,2.3,0.9
				c0.5,0.5,0.8,1.3,0.8,2c0,1.4-1,3-3.1,3H73h-0.4v0.4v0.3v0.2l0.1,0.1l5.7,5.1l0.1,0.1h0.1H79h1l-0.7-0.7l-5-4.5h1
				c2.7,0,4.1-2,4.1-4c0-1-0.4-2-1-2.7C77.7,55.8,76.6,55.3,75.4,55.3L75.4,55.3z"/>
		</g>
		<g id="XMLID_136_">
			<polygon id="XMLID_161_" class="st2" points="93.5,68.3 93.5,55.5 94.1,55.5 94.1,67.6 100.8,67.6 100.8,68.3 			"/>
			<path id="XMLID_141_" class="st2" d="M94,55.7v12.1h6.6v0.3c-2.3,0-4.6,0-6.9,0V55.7H94 M94.3,55.3H94h-0.3h-0.4v0.4v12.3v0.4
				h0.4h6.9h0.4v-0.4v-0.3v-0.4h-0.4h-6.3V55.7V55.3L94.3,55.3z"/>
		</g>
		<g id="XMLID_130_">
			<path id="XMLID_180_" class="st2" d="M109.8,68.4c-1.7,0-3.4-0.7-4.6-1.9c-1.2-1.2-1.9-2.9-1.9-4.6c0-1.7,0.7-3.4,1.9-4.6
				c1.2-1.2,2.9-1.9,4.6-1.9c1.7,0,3.4,0.7,4.6,1.9c1.2,1.3,1.9,2.9,1.9,4.6c0,1.7-0.7,3.4-1.9,4.6
				C113.2,67.7,111.6,68.4,109.8,68.4z M109.8,56c-1.6,0-3,0.6-4.1,1.7c-1.1,1.1-1.7,2.6-1.7,4.1c0,1.5,0.6,3,1.7,4.1
				c1.1,1.1,2.6,1.7,4.1,1.7c1.6,0,3-0.6,4.1-1.7c1.1-1.1,1.7-2.6,1.7-4.1s-0.6-3-1.7-4.1C112.8,56.6,111.4,56,109.8,56z"/>
			<path id="XMLID_174_" class="st2" d="M109.8,55.5c1.7,0,3.3,0.7,4.5,1.9c1.1,1.1,1.9,2.7,1.9,4.5s-0.7,3.3-1.9,4.5
				c-1.1,1.2-2.7,1.9-4.5,1.9c-1.7,0-3.3-0.7-4.5-1.9c-1.1-1.1-1.9-2.7-1.9-4.5s0.7-3.3,1.9-4.5C106.5,56.2,108.1,55.5,109.8,55.5
				 M109.8,68c1.7,0,3.2-0.7,4.3-1.8c1.1-1.1,1.7-2.6,1.7-4.3c0-1.7-0.7-3.2-1.7-4.3c-1.1-1.1-2.6-1.8-4.3-1.8
				c-1.7,0-3.2,0.7-4.3,1.8c-1.1,1.1-1.8,2.6-1.8,4.3c0,1.7,0.7,3.2,1.8,4.3C106.6,67.3,108.1,68,109.8,68 M109.8,55.1
				c-1.8,0-3.5,0.7-4.7,2c-1.3,1.3-2,3-2,4.7c0,1.8,0.7,3.5,2,4.8c1.2,1.3,2.9,2,4.7,2c1.8,0,3.5-0.7,4.7-2c1.3-1.3,2-3,2-4.8
				c0-1.8-0.7-3.5-2-4.8C113.3,55.8,111.6,55.1,109.8,55.1L109.8,55.1z M109.8,67.6c-1.5,0-2.9-0.6-4-1.7c-1.1-1.1-1.7-2.5-1.7-4
				s0.6-2.9,1.7-4c1.1-1.1,2.5-1.7,4-1.7c1.5,0,2.9,0.6,4,1.7c1.1,1.1,1.6,2.5,1.6,4s-0.6,2.9-1.6,4C112.7,67,111.3,67.6,109.8,67.6
				L109.8,67.6z"/>
		</g>
		<g id="XMLID_128_">
			<path id="XMLID_134_" class="st2" d="M126.6,68.3c-1.7,0-3.2-0.7-4.4-1.9c-1.2-1.2-1.8-2.8-1.8-4.5c0-1.7,0.6-3.3,1.8-4.5
				c1.2-1.2,2.7-1.9,4.4-1.9c1.7,0,3.2,0.7,4.4,1.9c0.6,0.6,1,1.3,1.3,2l0.1,0.3h-0.7l0-0.1c-0.3-0.6-0.6-1.2-1.1-1.7
				c-1-1.1-2.4-1.7-3.9-1.7s-2.9,0.6-3.9,1.7c-1.1,1.1-1.6,2.5-1.6,4c0,1.5,0.6,2.9,1.6,4c1.1,1.1,2.5,1.7,3.9,1.7s2.9-0.6,3.9-1.7
				c0.5-0.5,0.9-1.1,1.1-1.7l0-0.1h0.7l-0.1,0.3c-0.3,0.7-0.8,1.4-1.3,2C129.8,67.6,128.2,68.3,126.6,68.3z"/>
			<path id="XMLID_126_" class="st2" d="M126.6,55.7c1.7,0,3.2,0.7,4.3,1.8c0.5,0.5,1,1.2,1.3,1.9h-0.3c-0.3-0.7-0.7-1.2-1.2-1.7
				c-1-1.1-2.5-1.7-4.1-1.7c-1.6,0-3,0.7-4.1,1.7c-1,1.1-1.7,2.5-1.7,4.2c0,1.6,0.7,3.1,1.7,4.2c1,1.1,2.5,1.7,4.1,1.7
				c1.6,0,3-0.7,4.1-1.7c0.5-0.5,0.9-1.1,1.2-1.7h0.3c-0.3,0.7-0.7,1.4-1.3,1.9c-1.1,1.1-2.6,1.8-4.3,1.8c-1.7,0-3.2-0.7-4.3-1.8
				c-1.1-1.1-1.8-2.7-1.8-4.4c0-1.7,0.7-3.2,1.8-4.3C123.4,56.4,124.9,55.7,126.6,55.7 M126.6,55.4c-1.7,0-3.3,0.7-4.5,1.9
				c-1.2,1.2-1.9,2.9-1.9,4.6c0,1.7,0.7,3.4,1.9,4.6c1.2,1.2,2.8,1.9,4.5,1.9c1.7,0,3.3-0.7,4.5-1.9c0.6-0.6,1-1.3,1.3-2l0.2-0.5
				h-0.6h-0.3h-0.2l-0.1,0.2c-0.2,0.6-0.6,1.1-1.1,1.6c-1,1.1-2.4,1.6-3.8,1.6c-1.4,0-2.8-0.6-3.8-1.6c-1-1-1.6-2.4-1.6-3.9
				c0-1.4,0.6-2.8,1.6-3.9c1-1,2.4-1.6,3.8-1.6c1.4,0,2.8,0.6,3.8,1.6c0.5,0.5,0.8,1,1.1,1.6l0.1,0.2h0.2h0.3h0.6l-0.2-0.5
				c-0.3-0.7-0.8-1.4-1.3-2C129.9,56,128.3,55.4,126.6,55.4L126.6,55.4z"/>
		</g>
		<g id="XMLID_115_">
			<path id="XMLID_157_" class="st2" d="M146,68.3l-1.7-4.2h-6l-1.7,4.2h-0.7l5.1-12.9h0.6l5.1,12.9H146z M144.1,63.5l-2.7-7l-2.7,7
				H144.1z"/>
			<path id="XMLID_149_" class="st2" d="M141.5,55.5l5,12.5h-0.3l-1.7-4.2h-6.3l-1.7,4.2h-0.3l5-12.5H141.5 M138.3,63.6h6l-3-7.8
				L138.3,63.6 M141.7,55.1h-0.3h-0.3h-0.3l-0.1,0.2l-5,12.5l-0.2,0.5h0.6h0.3h0.3l0.1-0.2l1.6-3.9h5.7l1.6,3.9l0.1,0.2h0.3h0.3h0.6
				l-0.2-0.5l-5-12.5L141.7,55.1L141.7,55.1z M138.9,63.3l2.5-6.3l2.5,6.3H138.9L138.9,63.3z"/>
		</g>
		<g id="XMLID_113_">
			<polygon id="XMLID_124_" class="st2" points="150.7,68.3 150.7,55.5 151.4,55.5 151.4,67.6 158,67.6 158,68.3 			"/>
			<path id="XMLID_121_" class="st2" d="M151.2,55.7v12.1h6.6v0.3c-2.3,0-4.6,0-6.9,0V55.7H151.2 M151.5,55.3h-0.4h-0.3h-0.4v0.4
				v12.3v0.4h0.4h6.9h0.4v-0.4v-0.3v-0.4h-0.4h-6.3V55.7V55.3L151.5,55.3z"/>
		</g>
	</g>
	<g id="XMLID_72_">
		<g id="XMLID_109_">
			<path id="XMLID_119_" class="st2" d="M46.7,94.7c-2.7,0-5.8-1.6-6.1-4.5l-0.1-0.4l0.9-0.1l0.1,0.4c0.2,2.4,2.9,3.7,5.2,3.7
				c1.9,0,3.6-0.7,4.6-1.9c0.7-0.9,1-1.9,0.7-3.1c-0.5-2.2-2.8-2.5-5.2-2.7c-2.7-0.3-5.9-0.6-6.1-4.2c-0.1-1.1,0.2-2.2,0.9-3.1
				c1.1-1.4,3-2.2,5.2-2.2c2.5,0,5.2,1.2,5.7,4l0.1,0.5l-0.9,0.2l-0.1-0.5c-0.1-0.7-0.4-1.2-0.9-1.7c-0.9-0.9-2.4-1.5-4-1.5l-0.1,0
				c-1.4,0-3.3,0.5-4.3,1.9c-0.5,0.7-0.8,1.5-0.7,2.5c0.2,2.9,2.7,3.1,5.3,3.4c2.6,0.3,5.3,0.5,6,3.4c0.3,1.4,0,2.8-0.9,3.8
				C50.9,93.8,48.9,94.7,46.7,94.7z"/>
			<path id="XMLID_97_" class="st2" d="M46.8,76.8c2.5,0,5,1.2,5.5,3.8l0,0.2l-0.4,0.1l0-0.2c-0.1-0.7-0.4-1.3-0.9-1.9
				c-1-1.1-2.7-1.6-4.2-1.6c0,0-0.1,0-0.1,0c-1.6,0-3.5,0.6-4.5,2c-0.6,0.8-0.8,1.7-0.8,2.6c0.4,6,10.1,1.3,11.3,6.8
				c0.8,3.6-2.7,5.8-6,5.8c-2.5,0-5.6-1.4-5.9-4.2l0-0.2l0.4,0l0,0.2c0.3,2.6,3.2,3.9,5.5,3.9c3,0,6.3-1.9,5.5-5.4
				c-1.1-5.1-10.8-0.4-11.3-6.9c-0.1-1,0.2-2,0.8-2.9C42.9,77.5,44.8,76.8,46.8,76.8 M46.8,76.2c-2.2,0-4.3,0.9-5.4,2.3
				c-0.7,0.9-1,2.1-0.9,3.3c0.3,3.8,3.5,4.2,6.3,4.4c2.8,0.3,4.5,0.6,5,2.5c0.2,1.1,0,2.1-0.7,2.9c-0.9,1.1-2.6,1.8-4.4,1.8
				c-1.9,0-4.7-1.1-5-3.4l0-0.2l-0.1-0.5l-0.5,0.1l-0.4,0l-0.5,0.1l0.1,0.5l0,0.2c0.3,3,3.5,4.7,6.4,4.7c2.2,0,4.4-0.9,5.6-2.4
				c0.9-1.1,1.2-2.5,0.9-4.1c-0.7-3.1-3.6-3.4-6.2-3.6c-3.1-0.3-4.9-0.7-5.1-3.1c-0.1-0.9,0.1-1.7,0.6-2.3c1-1.3,2.8-1.8,4.1-1.8
				l0.1,0c1.6,0,3,0.5,3.8,1.4c0.4,0.4,0.7,1,0.8,1.6l0,0.2l0.1,0.6l0.6-0.1l0.4-0.1l0.5-0.1l-0.1-0.5l0-0.2
				C52.2,77.5,49.4,76.2,46.8,76.2L46.8,76.2z"/>
		</g>
		<g id="XMLID_101_">
			<polygon id="XMLID_94_" class="st2" points="63.1,94.6 63.1,77.6 57.1,77.6 57.1,76.7 69.9,76.7 69.9,77.6 64,77.6 64,94.6 			
				"/>
			<path id="XMLID_79_" class="st2" d="M69.7,77v0.4h-6v16.9h-0.4V77.4h-6V77H69.7 M70.2,76.4h-0.5H57.4h-0.5V77v0.4v0.5h0.5h5.4
				v16.4v0.5h0.5h0.4h0.5v-0.5V77.9h5.4h0.5v-0.5V77V76.4L70.2,76.4z"/>
		</g>
		<g id="XMLID_86_">
			<path id="XMLID_106_" class="st2" d="M83.2,94.7c-2.4,0-4.7-1-6.4-2.7c-1.7-1.7-2.7-4-2.7-6.4s0.9-4.7,2.7-6.4
				c1.7-1.7,4-2.7,6.4-2.7c2.4,0,4.7,1,6.4,2.7c1.7,1.7,2.7,4,2.7,6.4s-0.9,4.7-2.7,6.4C87.9,93.8,85.6,94.7,83.2,94.7z M83.2,77.4
				c-2.2,0-4.2,0.9-5.8,2.4c-1.5,1.6-2.4,3.6-2.4,5.8s0.8,4.2,2.4,5.8c1.5,1.6,3.6,2.4,5.8,2.4c2.2,0,4.2-0.9,5.8-2.4
				c1.5-1.6,2.4-3.6,2.4-5.8s-0.8-4.2-2.4-5.8C87.4,78.2,85.4,77.4,83.2,77.4z"/>
			<path id="XMLID_100_" class="st2" d="M83.2,76.7c2.4,0,4.6,1,6.2,2.6c1.6,1.6,2.6,3.8,2.6,6.3s-1,4.7-2.6,6.3
				c-1.6,1.6-3.8,2.6-6.2,2.6c-2.4,0-4.6-1-6.2-2.6c-1.6-1.6-2.6-3.8-2.6-6.3s1-4.7,2.6-6.3C78.6,77.7,80.8,76.7,83.2,76.7
				 M83.2,94.1c2.3,0,4.4-1,6-2.5c1.5-1.5,2.4-3.6,2.4-6s-0.9-4.4-2.4-6c-1.5-1.6-3.6-2.5-6-2.5c-2.3,0-4.4,1-5.9,2.5
				c-1.5,1.5-2.5,3.6-2.5,6s1,4.4,2.5,6C78.8,93.1,80.9,94.1,83.2,94.1 M83.2,76.2c-2.5,0-4.9,1-6.6,2.8c-1.8,1.8-2.7,4.1-2.7,6.6
				s1,4.8,2.7,6.6c1.7,1.8,4.1,2.8,6.6,2.8c2.5,0,4.9-1,6.6-2.8c1.8-1.8,2.7-4.1,2.7-6.6s-1-4.8-2.7-6.6
				C88.1,77.2,85.7,76.2,83.2,76.2L83.2,76.2z M83.2,93.5c-2.1,0-4.1-0.8-5.6-2.4c-1.5-1.5-2.3-3.5-2.3-5.6c0-2.1,0.8-4.1,2.3-5.6
				c1.5-1.5,3.5-2.4,5.6-2.4c2.1,0,4.1,0.8,5.6,2.4c1.5,1.5,2.3,3.5,2.3,5.6s-0.8,4.1-2.3,5.6C87.3,92.7,85.3,93.5,83.2,93.5
				L83.2,93.5z"/>
		</g>
		<g id="XMLID_81_">
			<path id="XMLID_60_" class="st2" d="M109.1,94.5l-8.1-7.3v-0.7h3.6c1.4,0,2.6-0.5,3.4-1.4c0.7-0.8,1.1-1.9,1.1-3
				c0-2.1-1.4-4.4-4.5-4.4h-5.3v16.9h-0.9V76.7h6.2c3.7,0,5.4,2.8,5.4,5.3c0,1.4-0.5,2.7-1.4,3.6c-1,1.1-2.4,1.7-4.1,1.7h-2.1
				l7.9,7.2H109.1z"/>
			<path id="XMLID_52_" class="st2" d="M104.6,77c6.9,0,6.9,10.1,0,10.1h-2.8l7.9,7.2h-0.6l-7.9-7.2v-0.4h3.4c6.4,0,6.4-9.3,0-9.3
				H99v16.9h-0.4V77.2V77h0.2H104.6 M104.6,76.4h-5.8h-0.2h-0.5V77v0.2v17.1v0.5h0.5H99h0.5v-0.5V77.9h5.1c1.3,0,2.4,0.4,3.2,1.3
				c0.7,0.7,1.1,1.8,1.1,2.8c0,2-1.3,4.1-4.3,4.1h-3.4h-0.5v0.5V87v0.2l0.2,0.2l7.9,7.2l0.1,0.1h0.2h0.6h1.4l-1-0.9l-6.9-6.3h1.4
				c3.7,0,5.7-2.8,5.7-5.6c0-1.5-0.5-2.8-1.4-3.8C107.9,77,106.4,76.4,104.6,76.4L104.6,76.4z"/>
		</g>
		<g id="XMLID_78_">
			<polygon id="XMLID_42_" class="st2" points="115.5,94.5 115.5,93.6 119.2,93.6 119.2,77.6 115.5,77.6 115.5,76.7 123.7,76.7 
				123.7,77.6 120.1,77.6 120.1,93.6 123.7,93.6 123.7,94.5 			"/>
			<path id="XMLID_39_" class="st2" d="M123.5,77v0.3h-3.7v16.5h3.7v0.4c-2.6,0-5.2,0-7.7,0v-0.4h3.7V77.3h-3.7V77
				C118.3,77,120.9,77,123.5,77 M124,76.5h-0.5h-7.7h-0.5V77v0.3v0.5h0.5h3.1v15.5h-3.1h-0.5v0.5v0.4v0.5h0.5h7.7h0.5v-0.5v-0.4
				v-0.5h-0.5h-3.1V77.9h3.1h0.5v-0.5V77V76.5L124,76.5z"/>
		</g>
		<g id="XMLID_76_">
			<polygon id="XMLID_37_" class="st2" points="129.7,94.5 129.7,94.2 129.7,76.7 139.7,76.7 139.7,77.6 130.6,77.6 130.6,85.1 
				139.5,85.1 139.5,86.1 130.6,86.1 130.6,93.6 139.7,93.6 139.7,94.5 			"/>
			<path id="XMLID_34_" class="st2" d="M139.4,77v0.4h-9.1v8h8.9v0.4h-8.9v8.1h9.2v0.4H130h0V77H139.4 M140,76.5h-0.5h-9.5h-0.5V77
				v17.2v0.5h0.5h9.6h0.5v-0.5v-0.4v-0.5h-0.5h-8.6v-7h8.4h0.5v-0.5v-0.4v-0.5h-0.5h-8.4v-7h8.6h0.5v-0.5V77V76.5L140,76.5z"/>
		</g>
		<g id="XMLID_73_">
			<path id="XMLID_32_" class="st2" d="M151.8,94.7c-2.7,0-5.8-1.6-6.1-4.5l-0.1-0.4l0.9-0.1l0.1,0.4c0.3,2.4,2.9,3.7,5.2,3.7
				c1.9,0,3.6-0.7,4.6-1.9c0.7-0.9,1-1.9,0.7-3.1c-0.5-2.2-2.8-2.5-5.2-2.7c-2.7-0.3-5.9-0.6-6.1-4.2c-0.1-1.1,0.2-2.2,0.9-3.1
				c1.1-1.4,3-2.2,5.2-2.2c2.5,0,5.2,1.2,5.7,4l0.1,0.5l-0.9,0.2l-0.1-0.5c-0.1-0.7-0.4-1.2-0.9-1.7c-0.9-0.9-2.4-1.5-4-1.5l-0.1,0
				c-1.4,0-3.3,0.5-4.3,1.9c-0.5,0.7-0.8,1.5-0.7,2.5c0.2,2.9,2.7,3.1,5.3,3.4c2.6,0.3,5.3,0.5,6,3.4c0.3,1.4,0,2.8-0.9,3.8
				C156,93.8,154,94.7,151.8,94.7z"/>
			<path id="XMLID_29_" class="st2" d="M151.9,76.8c2.5,0,5,1.2,5.5,3.8l0,0.2l-0.4,0.1l0-0.2c-0.1-0.7-0.4-1.3-0.9-1.9
				c-1-1.1-2.7-1.6-4.2-1.6c0,0-0.1,0-0.1,0c-1.6,0-3.5,0.6-4.5,2c-0.6,0.8-0.8,1.7-0.8,2.6c0.4,6,10.1,1.3,11.3,6.8
				c0.8,3.6-2.7,5.8-6,5.8c-2.5,0-5.6-1.4-5.9-4.2l0-0.2l0.4,0l0,0.2c0.3,2.6,3.2,3.9,5.5,3.9c3,0,6.3-1.9,5.5-5.4
				c-1.1-5.1-10.8-0.4-11.3-6.9c-0.1-1,0.2-2,0.8-2.9C148,77.5,150,76.8,151.9,76.8 M151.9,76.2c-2.2,0-4.3,0.9-5.4,2.3
				c-0.7,0.9-1,2.1-0.9,3.3c0.3,3.8,3.5,4.2,6.3,4.4c2.8,0.3,4.5,0.6,5,2.5c0.2,1.1,0,2.1-0.7,2.9c-0.9,1.1-2.6,1.8-4.4,1.8
				c-1.9,0-4.7-1.1-5-3.4l0-0.2l-0.1-0.5l-0.5,0.1l-0.4,0l-0.5,0.1l0.1,0.5l0,0.2c0.3,3,3.5,4.7,6.4,4.7c2.2,0,4.4-0.9,5.6-2.4
				c0.9-1.1,1.2-2.5,0.9-4.1c-0.7-3.1-3.6-3.4-6.2-3.6c-3.1-0.3-4.9-0.7-5.1-3.1c-0.1-0.9,0.1-1.7,0.6-2.3c1-1.3,2.8-1.8,4.1-1.8
				l0.1,0c1.6,0,3,0.5,3.8,1.4c0.4,0.4,0.7,1,0.8,1.6l0,0.2l0.1,0.6l0.6-0.1l0.4-0.1l0.5-0.1l-0.1-0.5l0-0.2
				C157.3,77.5,154.5,76.2,151.9,76.2L151.9,76.2z"/>
		</g>
	</g>
</g>
<g id="XMLID_4_">
	<path id="XMLID_68_" class="st3" d="M586.8,68.2c9.2,0,9.2,14,0,14h-4.7c0-4.7,0-9.3,0-14H586.8z M586.8,81.8
		c8.8,0,8.8-13.4,0-13.4h-4.4c0,4.3,0,9,0,13.4H586.8z"/>
	<path id="XMLID_66_" class="st3" d="M604.1,68.4h-3v13.4h3v0.3c-2.1,0-4.2,0-6.3,0v-0.3h3V68.4h-3v-0.3c2.1,0,4.2,0,6.3,0V68.4z"/>
	<path id="XMLID_64_" class="st3" d="M618.1,71.1c-0.1-0.6-0.4-1.1-0.8-1.5c-0.9-0.9-2.2-1.3-3.5-1.3c-1.3,0-2.8,0.5-3.7,1.6
		c-0.5,0.6-0.7,1.4-0.6,2.1c0.4,4.9,8.2,1.1,9.2,5.5c0.6,3-2.2,4.7-4.8,4.7c-2,0-4.5-1.2-4.8-3.4l0-0.1l0.3,0l0,0.1
		c0.2,2.1,2.6,3.2,4.5,3.2c2.4,0,5.1-1.6,4.5-4.4c-0.9-4.2-8.8-0.4-9.2-5.6c-0.1-0.8,0.1-1.7,0.7-2.3c2-2.6,7.8-2.3,8.5,1.3l0,0.2
		l-0.3,0.1L618.1,71.1z"/>
	<path id="XMLID_62_" class="st3" d="M636.2,72.4c-0.3-0.7-0.8-1.4-1.3-2c-1.2-1.2-2.8-2-4.6-2c-1.8,0-3.4,0.7-4.6,2
		c-1.2,1.2-1.9,2.9-1.9,4.7c0,1.8,0.7,3.5,1.9,4.7c1.2,1.2,2.8,2,4.6,2c1.8,0,3.4-0.8,4.6-2c0.5-0.6,1-1.2,1.3-1.9h0.3
		c-0.3,0.8-0.8,1.6-1.4,2.2c-1.2,1.3-2.9,2.1-4.8,2.1s-3.6-0.8-4.8-2.1c-1.2-1.3-2-3-2-4.9c0-1.9,0.8-3.7,2-4.9
		c1.2-1.3,2.9-2.1,4.8-2.1s3.6,0.8,4.8,2.1c0.6,0.6,1.1,1.4,1.4,2.2H636.2z"/>
	<path id="XMLID_58_" class="st3" d="M643.8,70.1c1.3-1.3,3.1-2.1,5-2.1c2,0,3.8,0.8,5.1,2.1c1.3,1.3,2.1,3.1,2.1,5.1
		s-0.8,3.8-2.1,5.1c-1.3,1.3-3.1,2.1-5.1,2.1c-2,0-3.8-0.8-5-2.1c-1.3-1.3-2.1-3.1-2.1-5.1S642.5,71.4,643.8,70.1z M653.6,70.3
		c-1.2-1.3-3-2-4.8-2c-1.9,0-3.6,0.8-4.8,2c-1.2,1.2-2,2.9-2,4.8s0.8,3.6,2,4.8c1.2,1.3,2.9,2,4.8,2c1.9,0,3.6-0.8,4.8-2
		c1.2-1.2,2-2.9,2-4.8S654.9,71.5,653.6,70.3z"/>
	<path id="XMLID_56_" class="st3" d="M671.2,68.2h0.3l-5.6,14.2h-0.3L660,68.2h0.3l5.4,13.8L671.2,68.2z"/>
	<path id="XMLID_55_" class="st3" d="M676.9,81.8h7.4v0.3h-7.7h0v-14h7.7v0.3h-7.4V75h7.2v0.3h-7.2V81.8z"/>
	<path id="XMLID_83_" class="st3" d="M690.1,82.1h-0.3V68.3v-0.2h0.2h4.7c5.6,0,5.6,8.2,0,8.2h-2.3l6.4,5.8h-0.5l-6.4-5.8V76h2.7
		c5.2,0,5.2-7.6,0-7.6h-4.5V82.1z"/>
	<path id="XMLID_88_" class="st3" d="M716.1,81.8c0,0.2-0.2,0.4-0.4,0.4c-0.2,0-0.4-0.2-0.4-0.4c0-0.2,0.2-0.4,0.4-0.4
		C715.9,81.4,716.1,81.6,716.1,81.8z"/>
	<path id="XMLID_50_" class="st3" d="M733,81.8h7.4v0.3h-7.7h0v-14h7.7v0.3H733V75h7.2v0.3H733V81.8z"/>
	<path id="XMLID_95_" class="st3" d="M745.1,68.2l4.9,6.7l4.9-6.7h0.4l-5.1,7l5.1,7h-0.4l-4.9-6.7l-4.9,6.7h-0.4l5.1-7l-5.1-7H745.1
		z"/>
	<path id="XMLID_47_" class="st3" d="M760.3,68.1h0.2h4.7c5.6,0,5.6,8.7,0,8.7h-4.5v5.3h-0.3c0-4.6,0-9.2,0-13.8V68.1z M765.2,76.5
		c5.2,0,5.2-8.1,0-8.1h-4.5v8.1H765.2z"/>
	<path id="XMLID_45_" class="st3" d="M775.1,81.8h7.5v0.3c-2.6,0-5.2,0-7.8,0v-14h0.3V81.8z"/>
	<path id="XMLID_162_" class="st3" d="M788,70.1c1.3-1.3,3.1-2.1,5-2.1c2,0,3.8,0.8,5.1,2.1c1.3,1.3,2.1,3.1,2.1,5.1
		s-0.8,3.8-2.1,5.1c-1.3,1.3-3.1,2.1-5.1,2.1c-2,0-3.8-0.8-5-2.1c-1.3-1.3-2.1-3.1-2.1-5.1S786.7,71.4,788,70.1z M797.9,70.3
		c-1.2-1.3-3-2-4.8-2c-1.9,0-3.6,0.8-4.8,2c-1.2,1.2-2,2.9-2,4.8s0.8,3.6,2,4.8c1.2,1.3,2.9,2,4.8,2c1.9,0,3.6-0.8,4.8-2
		c1.2-1.2,2-2.9,2-4.8S799.1,71.5,797.9,70.3z"/>
	<path id="XMLID_165_" class="st3" d="M806,82.1h-0.3V68.3v-0.2h0.2h4.7c5.6,0,5.6,8.2,0,8.2h-2.3l6.4,5.8h-0.5l-6.4-5.8V76h2.7
		c5.2,0,5.2-7.6,0-7.6H806V82.1z"/>
	<path id="XMLID_167_" class="st3" d="M820.6,81.8h7.4v0.3h-7.7h0v-14h7.7v0.3h-7.4V75h7.2v0.3h-7.2V81.8z"/>
	<path id="XMLID_169_" class="st3" d="M845.1,81.8c0,0.2-0.2,0.4-0.4,0.4c-0.2,0-0.4-0.2-0.4-0.4c0-0.2,0.2-0.4,0.4-0.4
		C845,81.4,845.1,81.6,845.1,81.8z"/>
	<path id="XMLID_17_" class="st3" d="M862.1,81.8h7.5v0.3c-2.6,0-5.2,0-7.8,0v-14h0.3V81.8z"/>
	<path id="XMLID_15_" class="st3" d="M875.2,81.8h7.4v0.3h-7.7h0v-14h7.7v0.3h-7.4V75h7.2v0.3h-7.2V81.8z"/>
	<path id="XMLID_8_" class="st3" d="M896.3,77.4h-7.1l-1.9,4.7H887l5.6-14.2h0.3l5.6,14.2h-0.3L896.3,77.4z M889.4,77.1h6.8
		l-3.4-8.8L889.4,77.1z"/>
	<path id="XMLID_7_" class="st3" d="M903.9,82.1h-0.3V68.3v-0.2h0.2h4.7c5.6,0,5.6,8.2,0,8.2h-2.3l6.4,5.8h-0.5l-6.4-5.8V76h2.7
		c5.2,0,5.2-7.6,0-7.6h-4.5V82.1z"/>
	<path id="XMLID_5_" class="st3" d="M918.2,82.1v-14l0.3,0l9.3,13.4V68.1h0.3v14h-0.3l-9.2-13.4v13.4H918.2z"/>
</g>
</svg>
